<?xml version="1.0" encoding="utf-8" standalone="no"?>
<!DOCTYPE svg PUBLIC "-//W3C//DTD SVG 1.1//EN"
  "http://www.w3.org/Graphics/SVG/1.1/DTD/svg11.dtd">
<svg xmlns:xlink="http://www.w3.org/1999/xlink" width="460.8pt" height="345.6pt" viewBox="0 0 460.8 345.6" xmlns="http://www.w3.org/2000/svg" version="1.1">
 <metadata>
  <rdf:RDF xmlns:dc="http://purl.org/dc/elements/1.1/" xmlns:cc="http://creativecommons.org/ns#" xmlns:rdf="http://www.w3.org/1999/02/22-rdf-syntax-ns#">
   <cc:Work>
    <dc:type rdf:resource="http://purl.org/dc/dcmitype/StillImage"/>
    <dc:date>2023-12-14T19:00:16.513629</dc:date>
    <dc:format>image/svg+xml</dc:format>
    <dc:creator>
     <cc:Agent>
      <dc:title>Matplotlib v3.8.0, https://matplotlib.org/</dc:title>
     </cc:Agent>
    </dc:creator>
   </cc:Work>
  </rdf:RDF>
 </metadata>
 <defs>
  <style type="text/css">*{stroke-linejoin: round; stroke-linecap: butt}</style>
 </defs>
 <g id="figure_1">
  <g id="patch_1">
   <path d="M 0 345.6 
L 460.8 345.6 
L 460.8 0 
L 0 0 
z
" style="fill: #ffffff"/>
  </g>
  <g id="patch_2">
   <path d="M 73.152 334.8864 
L 397.3248 334.8864 
L 397.3248 10.7136 
L 73.152 10.7136 
z
" style="fill: #ffffff"/>
  </g>
  <g id="axes_1">
   <g id="Line3DCollection_1">
    <path d="M 205.818651 214.720675 
L 372.669316 234.168452 
" clip-path="url(#p74ba4c52b0)" style="fill: none; stroke: #000000"/>
    <path d="M 205.348222 77.054035 
L 374.623938 89.140961 
" clip-path="url(#p74ba4c52b0)" style="fill: none; stroke: #000000"/>
    <path d="M 205.818651 214.720675 
L 205.348222 77.054035 
" clip-path="url(#p74ba4c52b0)" style="fill: none; stroke: #000000"/>
    <path d="M 372.669316 234.168452 
L 374.623938 89.140961 
" clip-path="url(#p74ba4c52b0)" style="fill: none; stroke: #000000"/>
   </g>
   <g id="line2d_1">
    <path d="M 225.819967 112.453765 
L 218.44988 111.794233 
L 218.016898 115.687881 
L 224.90571 116.365393 
L 224.90571 116.365393 
L 219.031455 120.736874 
L 227.136874 120.263853 
L 223.17375 117.057854 
L 224.845009 120.281821 
L 228.096117 134.818668 
L 223.360423 136.735531 
L 221.80459 140.436885 
L 222.214849 144.16813 
L 260.910626 146.804448 
L 260.910626 146.804448 
L 255.814146 149.270522 
L 260.028635 152.304633 
L 262.17193 153.836481 
L 248.456657 160.307975 
L 265.28186 159.466036 
L 267.589863 164.505803 
L 273.111924 164.584385 
L 272.309937 169.465436 
L 272.559956 168.211489 
L 272.559956 168.211489 
L 268.39545 170.919162 
L 273.376271 178.731254 
L 258.154372 175.49757 
L 267.281241 180.059524 
L 282.178747 194.256435 
L 281.631127 192.59157 
L 277.164949 195.589507 
L 281.668323 195.902269 
L 286.629029 200.978366 
L 288.253788 204.269843 
L 288.253788 204.269843 
L 282.264843 196.462126 
L 291.375722 200.401333 
L 290.347134 203.744244 
L 290.347134 203.744244 
L 286.393103 202.863624 
L 288.225408 192.061334 
L 286.165271 191.816824 
L 291.850424 205.390738 
L 291.850424 205.390738 
L 288.793468 200.056893 
L 291.833615 205.890562 
L 282.67224 196.397574 
L 286.315407 199.785673 
L 289.257199 208.293769 
L 289.257199 208.293769 
L 291.200868 206.9871 
L 288.38977 206.198037 
L 289.018708 198.80608 
L 290.13014 204.770882 
L 291.056233 202.685243 
L 291.018011 204.541164 
L 290.249841 203.534282 
L 299.340955 205.844953 
" clip-path="url(#p74ba4c52b0)" style="fill: none; stroke: #db5f57; stroke-width: 1.5; stroke-linecap: round"/>
   </g>
   <g id="line2d_2">
    <path d="M 240.133485 123.288458 
L 233.439983 126.343879 
L 235.298885 122.686165 
L 231.903116 126.876018 
L 235.252014 120.586352 
L 235.761542 125.699074 
L 239.122438 124.48643 
L 269.206866 141.593756 
L 281.679209 152.753129 
L 281.679209 152.753129 
L 280.059111 152.749046 
L 276.691267 154.158072 
L 290.428104 162.495401 
L 290.428104 162.495401 
L 283.433505 155.329675 
L 273.478381 154.900506 
L 286.172838 151.980003 
L 291.238222 169.462491 
L 288.869288 165.237162 
L 294.240435 170.442005 
L 294.240435 170.442005 
L 291.824889 171.187447 
L 296.371912 172.898072 
L 296.371912 172.898072 
L 296.563807 175.228016 
L 296.563807 175.228016 
L 291.725042 170.247783 
L 284.481727 171.279227 
L 286.725394 171.987935 
L 302.001271 178.776033 
L 302.001271 178.776033 
L 299.008968 176.748598 
L 305.257726 178.048014 
L 305.257726 178.048014 
L 301.920385 175.989651 
L 291.007808 172.497309 
L 289.822609 175.847717 
L 297.622392 174.314297 
L 295.248853 174.587855 
L 296.036189 184.5033 
L 300.913824 186.180873 
" clip-path="url(#p74ba4c52b0)" style="fill: none; stroke: #57db5f; stroke-width: 1.5; stroke-linecap: round"/>
   </g>
   <g id="line2d_3">
    <path d="M 225.819967 112.453765 
L 218.44988 111.794233 
L 215.500388 112.430825 
L 215.500388 112.430825 
L 226.1861 116.59866 
L 223.883411 121.596213 
L 216.334454 125.387896 
L 216.170617 127.446961 
L 179.600075 136.073222 
L 179.600075 136.073222 
L 179.284956 141.917246 
L 185.418016 139.688158 
L 183.843643 133.05145 
L 190.340839 146.354336 
L 160.299124 156.530205 
L 160.299124 156.530205 
L 163.490863 154.073056 
L 169.155426 149.709536 
L 138.114691 185.698392 
L 138.114691 185.698392 
L 145.560799 182.493406 
L 143.98545 184.078024 
L 151.745544 184.169887 
L 137.534412 195.756922 
L 133.496592 201.082003 
L 133.496592 201.082003 
L 138.939179 198.180846 
L 141.809108 196.882316 
L 139.116406 201.14275 
L 134.246494 201.071475 
L 134.246494 201.071475 
L 141.667441 191.799438 
L 137.394706 196.631472 
L 134.990048 199.896869 
L 134.990048 199.896869 
L 143.316792 192.887911 
L 141.944638 192.064867 
L 142.002906 191.765772 
L 137.608853 196.724957 
L 137.608853 196.724957 
L 141.702207 191.374557 
L 139.091205 196.25853 
L 141.704178 201.707202 
L 143.234308 204.069513 
" clip-path="url(#p74ba4c52b0)" style="fill: none; stroke: #5f57db; stroke-width: 1.5; stroke-linecap: round"/>
   </g>
   <g id="Line3DCollection_2">
    <path d="M 101.014709 249.811379 
L 205.818651 214.720675 
" clip-path="url(#p74ba4c52b0)" style="fill: none; stroke: #000000"/>
    <path d="M 98.892188 98.87653 
L 205.348222 77.054035 
" clip-path="url(#p74ba4c52b0)" style="fill: none; stroke: #000000"/>
    <path d="M 101.014709 249.811379 
L 98.892188 98.87653 
" clip-path="url(#p74ba4c52b0)" style="fill: none; stroke: #000000"/>
    <path d="M 205.818651 214.720675 
L 205.348222 77.054035 
" clip-path="url(#p74ba4c52b0)" style="fill: none; stroke: #000000"/>
   </g>
   <g id="Line3DCollection_3">
    <path d="M 101.014709 249.811379 
L 279.003971 273.418231 
" clip-path="url(#p74ba4c52b0)" style="fill: none; stroke: #000000"/>
    <path d="M 205.818651 214.720675 
L 372.669316 234.168452 
" clip-path="url(#p74ba4c52b0)" style="fill: none; stroke: #000000"/>
    <path d="M 101.014709 249.811379 
L 205.818651 214.720675 
" clip-path="url(#p74ba4c52b0)" style="fill: none; stroke: #000000"/>
    <path d="M 279.003971 273.418231 
L 372.669316 234.168452 
" clip-path="url(#p74ba4c52b0)" style="fill: none; stroke: #000000"/>
   </g>
   <g id="Line3DCollection_4">
    <path d="M 98.892188 98.87653 
L 279.644157 113.591189 
" clip-path="url(#p74ba4c52b0)" style="fill: none; stroke: #000000"/>
    <path d="M 205.348222 77.054035 
L 374.623938 89.140961 
" clip-path="url(#p74ba4c52b0)" style="fill: none; stroke: #000000"/>
    <path d="M 98.892188 98.87653 
L 205.348222 77.054035 
" clip-path="url(#p74ba4c52b0)" style="fill: none; stroke: #000000"/>
    <path d="M 279.644157 113.591189 
L 374.623938 89.140961 
" clip-path="url(#p74ba4c52b0)" style="fill: none; stroke: #000000"/>
   </g>
   <g id="legend_1">
    <g id="patch_3">
     <path d="M 40.1623 62.747975 
L 390.3248 62.747975 
Q 392.3248 62.747975 392.3248 60.747975 
L 392.3248 17.7136 
Q 392.3248 15.7136 390.3248 15.7136 
L 40.1623 15.7136 
Q 38.1623 15.7136 38.1623 17.7136 
L 38.1623 60.747975 
Q 38.1623 62.747975 40.1623 62.747975 
z
" style="fill: #ffffff; opacity: 0.8; stroke: #cccccc; stroke-linejoin: miter"/>
    </g>
    <g id="line2d_4">
     <path d="M 42.1623 23.812037 
L 52.1623 23.812037 
L 62.1623 23.812037 
" style="fill: none; stroke: #db5f57; stroke-width: 1.5; stroke-linecap: round"/>
    </g>
    <g id="text_1">
     <!-- This framework generates embeddings for each input sentence -->
     <g style="fill: #262626" transform="translate(70.1623 27.312037) scale(0.1 -0.1)">
      <defs>
       <path id="DejaVuSans-54" d="M -19 4666 
L 3928 4666 
L 3928 4134 
L 2272 4134 
L 2272 0 
L 1638 0 
L 1638 4134 
L -19 4134 
L -19 4666 
z
" transform="scale(0.015625)"/>
       <path id="DejaVuSans-68" d="M 3513 2113 
L 3513 0 
L 2938 0 
L 2938 2094 
Q 2938 2591 2744 2837 
Q 2550 3084 2163 3084 
Q 1697 3084 1428 2787 
Q 1159 2491 1159 1978 
L 1159 0 
L 581 0 
L 581 4863 
L 1159 4863 
L 1159 2956 
Q 1366 3272 1645 3428 
Q 1925 3584 2291 3584 
Q 2894 3584 3203 3211 
Q 3513 2838 3513 2113 
z
" transform="scale(0.015625)"/>
       <path id="DejaVuSans-69" d="M 603 3500 
L 1178 3500 
L 1178 0 
L 603 0 
L 603 3500 
z
M 603 4863 
L 1178 4863 
L 1178 4134 
L 603 4134 
L 603 4863 
z
" transform="scale(0.015625)"/>
       <path id="DejaVuSans-73" d="M 2834 3397 
L 2834 2853 
Q 2591 2978 2328 3040 
Q 2066 3103 1784 3103 
Q 1356 3103 1142 2972 
Q 928 2841 928 2578 
Q 928 2378 1081 2264 
Q 1234 2150 1697 2047 
L 1894 2003 
Q 2506 1872 2764 1633 
Q 3022 1394 3022 966 
Q 3022 478 2636 193 
Q 2250 -91 1575 -91 
Q 1294 -91 989 -36 
Q 684 19 347 128 
L 347 722 
Q 666 556 975 473 
Q 1284 391 1588 391 
Q 1994 391 2212 530 
Q 2431 669 2431 922 
Q 2431 1156 2273 1281 
Q 2116 1406 1581 1522 
L 1381 1569 
Q 847 1681 609 1914 
Q 372 2147 372 2553 
Q 372 3047 722 3315 
Q 1072 3584 1716 3584 
Q 2034 3584 2315 3537 
Q 2597 3491 2834 3397 
z
" transform="scale(0.015625)"/>
       <path id="DejaVuSans-20" transform="scale(0.015625)"/>
       <path id="DejaVuSans-66" d="M 2375 4863 
L 2375 4384 
L 1825 4384 
Q 1516 4384 1395 4259 
Q 1275 4134 1275 3809 
L 1275 3500 
L 2222 3500 
L 2222 3053 
L 1275 3053 
L 1275 0 
L 697 0 
L 697 3053 
L 147 3053 
L 147 3500 
L 697 3500 
L 697 3744 
Q 697 4328 969 4595 
Q 1241 4863 1831 4863 
L 2375 4863 
z
" transform="scale(0.015625)"/>
       <path id="DejaVuSans-72" d="M 2631 2963 
Q 2534 3019 2420 3045 
Q 2306 3072 2169 3072 
Q 1681 3072 1420 2755 
Q 1159 2438 1159 1844 
L 1159 0 
L 581 0 
L 581 3500 
L 1159 3500 
L 1159 2956 
Q 1341 3275 1631 3429 
Q 1922 3584 2338 3584 
Q 2397 3584 2469 3576 
Q 2541 3569 2628 3553 
L 2631 2963 
z
" transform="scale(0.015625)"/>
       <path id="DejaVuSans-61" d="M 2194 1759 
Q 1497 1759 1228 1600 
Q 959 1441 959 1056 
Q 959 750 1161 570 
Q 1363 391 1709 391 
Q 2188 391 2477 730 
Q 2766 1069 2766 1631 
L 2766 1759 
L 2194 1759 
z
M 3341 1997 
L 3341 0 
L 2766 0 
L 2766 531 
Q 2569 213 2275 61 
Q 1981 -91 1556 -91 
Q 1019 -91 701 211 
Q 384 513 384 1019 
Q 384 1609 779 1909 
Q 1175 2209 1959 2209 
L 2766 2209 
L 2766 2266 
Q 2766 2663 2505 2880 
Q 2244 3097 1772 3097 
Q 1472 3097 1187 3025 
Q 903 2953 641 2809 
L 641 3341 
Q 956 3463 1253 3523 
Q 1550 3584 1831 3584 
Q 2591 3584 2966 3190 
Q 3341 2797 3341 1997 
z
" transform="scale(0.015625)"/>
       <path id="DejaVuSans-6d" d="M 3328 2828 
Q 3544 3216 3844 3400 
Q 4144 3584 4550 3584 
Q 5097 3584 5394 3201 
Q 5691 2819 5691 2113 
L 5691 0 
L 5113 0 
L 5113 2094 
Q 5113 2597 4934 2840 
Q 4756 3084 4391 3084 
Q 3944 3084 3684 2787 
Q 3425 2491 3425 1978 
L 3425 0 
L 2847 0 
L 2847 2094 
Q 2847 2600 2669 2842 
Q 2491 3084 2119 3084 
Q 1678 3084 1418 2786 
Q 1159 2488 1159 1978 
L 1159 0 
L 581 0 
L 581 3500 
L 1159 3500 
L 1159 2956 
Q 1356 3278 1631 3431 
Q 1906 3584 2284 3584 
Q 2666 3584 2933 3390 
Q 3200 3197 3328 2828 
z
" transform="scale(0.015625)"/>
       <path id="DejaVuSans-65" d="M 3597 1894 
L 3597 1613 
L 953 1613 
Q 991 1019 1311 708 
Q 1631 397 2203 397 
Q 2534 397 2845 478 
Q 3156 559 3463 722 
L 3463 178 
Q 3153 47 2828 -22 
Q 2503 -91 2169 -91 
Q 1331 -91 842 396 
Q 353 884 353 1716 
Q 353 2575 817 3079 
Q 1281 3584 2069 3584 
Q 2775 3584 3186 3129 
Q 3597 2675 3597 1894 
z
M 3022 2063 
Q 3016 2534 2758 2815 
Q 2500 3097 2075 3097 
Q 1594 3097 1305 2825 
Q 1016 2553 972 2059 
L 3022 2063 
z
" transform="scale(0.015625)"/>
       <path id="DejaVuSans-77" d="M 269 3500 
L 844 3500 
L 1563 769 
L 2278 3500 
L 2956 3500 
L 3675 769 
L 4391 3500 
L 4966 3500 
L 4050 0 
L 3372 0 
L 2619 2869 
L 1863 0 
L 1184 0 
L 269 3500 
z
" transform="scale(0.015625)"/>
       <path id="DejaVuSans-6f" d="M 1959 3097 
Q 1497 3097 1228 2736 
Q 959 2375 959 1747 
Q 959 1119 1226 758 
Q 1494 397 1959 397 
Q 2419 397 2687 759 
Q 2956 1122 2956 1747 
Q 2956 2369 2687 2733 
Q 2419 3097 1959 3097 
z
M 1959 3584 
Q 2709 3584 3137 3096 
Q 3566 2609 3566 1747 
Q 3566 888 3137 398 
Q 2709 -91 1959 -91 
Q 1206 -91 779 398 
Q 353 888 353 1747 
Q 353 2609 779 3096 
Q 1206 3584 1959 3584 
z
" transform="scale(0.015625)"/>
       <path id="DejaVuSans-6b" d="M 581 4863 
L 1159 4863 
L 1159 1991 
L 2875 3500 
L 3609 3500 
L 1753 1863 
L 3688 0 
L 2938 0 
L 1159 1709 
L 1159 0 
L 581 0 
L 581 4863 
z
" transform="scale(0.015625)"/>
       <path id="DejaVuSans-67" d="M 2906 1791 
Q 2906 2416 2648 2759 
Q 2391 3103 1925 3103 
Q 1463 3103 1205 2759 
Q 947 2416 947 1791 
Q 947 1169 1205 825 
Q 1463 481 1925 481 
Q 2391 481 2648 825 
Q 2906 1169 2906 1791 
z
M 3481 434 
Q 3481 -459 3084 -895 
Q 2688 -1331 1869 -1331 
Q 1566 -1331 1297 -1286 
Q 1028 -1241 775 -1147 
L 775 -588 
Q 1028 -725 1275 -790 
Q 1522 -856 1778 -856 
Q 2344 -856 2625 -561 
Q 2906 -266 2906 331 
L 2906 616 
Q 2728 306 2450 153 
Q 2172 0 1784 0 
Q 1141 0 747 490 
Q 353 981 353 1791 
Q 353 2603 747 3093 
Q 1141 3584 1784 3584 
Q 2172 3584 2450 3431 
Q 2728 3278 2906 2969 
L 2906 3500 
L 3481 3500 
L 3481 434 
z
" transform="scale(0.015625)"/>
       <path id="DejaVuSans-6e" d="M 3513 2113 
L 3513 0 
L 2938 0 
L 2938 2094 
Q 2938 2591 2744 2837 
Q 2550 3084 2163 3084 
Q 1697 3084 1428 2787 
Q 1159 2491 1159 1978 
L 1159 0 
L 581 0 
L 581 3500 
L 1159 3500 
L 1159 2956 
Q 1366 3272 1645 3428 
Q 1925 3584 2291 3584 
Q 2894 3584 3203 3211 
Q 3513 2838 3513 2113 
z
" transform="scale(0.015625)"/>
       <path id="DejaVuSans-74" d="M 1172 4494 
L 1172 3500 
L 2356 3500 
L 2356 3053 
L 1172 3053 
L 1172 1153 
Q 1172 725 1289 603 
Q 1406 481 1766 481 
L 2356 481 
L 2356 0 
L 1766 0 
Q 1100 0 847 248 
Q 594 497 594 1153 
L 594 3053 
L 172 3053 
L 172 3500 
L 594 3500 
L 594 4494 
L 1172 4494 
z
" transform="scale(0.015625)"/>
       <path id="DejaVuSans-62" d="M 3116 1747 
Q 3116 2381 2855 2742 
Q 2594 3103 2138 3103 
Q 1681 3103 1420 2742 
Q 1159 2381 1159 1747 
Q 1159 1113 1420 752 
Q 1681 391 2138 391 
Q 2594 391 2855 752 
Q 3116 1113 3116 1747 
z
M 1159 2969 
Q 1341 3281 1617 3432 
Q 1894 3584 2278 3584 
Q 2916 3584 3314 3078 
Q 3713 2572 3713 1747 
Q 3713 922 3314 415 
Q 2916 -91 2278 -91 
Q 1894 -91 1617 61 
Q 1341 213 1159 525 
L 1159 0 
L 581 0 
L 581 4863 
L 1159 4863 
L 1159 2969 
z
" transform="scale(0.015625)"/>
       <path id="DejaVuSans-64" d="M 2906 2969 
L 2906 4863 
L 3481 4863 
L 3481 0 
L 2906 0 
L 2906 525 
Q 2725 213 2448 61 
Q 2172 -91 1784 -91 
Q 1150 -91 751 415 
Q 353 922 353 1747 
Q 353 2572 751 3078 
Q 1150 3584 1784 3584 
Q 2172 3584 2448 3432 
Q 2725 3281 2906 2969 
z
M 947 1747 
Q 947 1113 1208 752 
Q 1469 391 1925 391 
Q 2381 391 2643 752 
Q 2906 1113 2906 1747 
Q 2906 2381 2643 2742 
Q 2381 3103 1925 3103 
Q 1469 3103 1208 2742 
Q 947 2381 947 1747 
z
" transform="scale(0.015625)"/>
       <path id="DejaVuSans-63" d="M 3122 3366 
L 3122 2828 
Q 2878 2963 2633 3030 
Q 2388 3097 2138 3097 
Q 1578 3097 1268 2742 
Q 959 2388 959 1747 
Q 959 1106 1268 751 
Q 1578 397 2138 397 
Q 2388 397 2633 464 
Q 2878 531 3122 666 
L 3122 134 
Q 2881 22 2623 -34 
Q 2366 -91 2075 -91 
Q 1284 -91 818 406 
Q 353 903 353 1747 
Q 353 2603 823 3093 
Q 1294 3584 2113 3584 
Q 2378 3584 2631 3529 
Q 2884 3475 3122 3366 
z
" transform="scale(0.015625)"/>
       <path id="DejaVuSans-70" d="M 1159 525 
L 1159 -1331 
L 581 -1331 
L 581 3500 
L 1159 3500 
L 1159 2969 
Q 1341 3281 1617 3432 
Q 1894 3584 2278 3584 
Q 2916 3584 3314 3078 
Q 3713 2572 3713 1747 
Q 3713 922 3314 415 
Q 2916 -91 2278 -91 
Q 1894 -91 1617 61 
Q 1341 213 1159 525 
z
M 3116 1747 
Q 3116 2381 2855 2742 
Q 2594 3103 2138 3103 
Q 1681 3103 1420 2742 
Q 1159 2381 1159 1747 
Q 1159 1113 1420 752 
Q 1681 391 2138 391 
Q 2594 391 2855 752 
Q 3116 1113 3116 1747 
z
" transform="scale(0.015625)"/>
       <path id="DejaVuSans-75" d="M 544 1381 
L 544 3500 
L 1119 3500 
L 1119 1403 
Q 1119 906 1312 657 
Q 1506 409 1894 409 
Q 2359 409 2629 706 
Q 2900 1003 2900 1516 
L 2900 3500 
L 3475 3500 
L 3475 0 
L 2900 0 
L 2900 538 
Q 2691 219 2414 64 
Q 2138 -91 1772 -91 
Q 1169 -91 856 284 
Q 544 659 544 1381 
z
M 1991 3584 
L 1991 3584 
z
" transform="scale(0.015625)"/>
      </defs>
      <use xlink:href="#DejaVuSans-54"/>
      <use xlink:href="#DejaVuSans-68" x="61.083984"/>
      <use xlink:href="#DejaVuSans-69" x="124.462891"/>
      <use xlink:href="#DejaVuSans-73" x="152.246094"/>
      <use xlink:href="#DejaVuSans-20" x="204.345703"/>
      <use xlink:href="#DejaVuSans-66" x="236.132812"/>
      <use xlink:href="#DejaVuSans-72" x="271.337891"/>
      <use xlink:href="#DejaVuSans-61" x="312.451172"/>
      <use xlink:href="#DejaVuSans-6d" x="373.730469"/>
      <use xlink:href="#DejaVuSans-65" x="471.142578"/>
      <use xlink:href="#DejaVuSans-77" x="532.666016"/>
      <use xlink:href="#DejaVuSans-6f" x="614.453125"/>
      <use xlink:href="#DejaVuSans-72" x="675.634766"/>
      <use xlink:href="#DejaVuSans-6b" x="716.748047"/>
      <use xlink:href="#DejaVuSans-20" x="774.658203"/>
      <use xlink:href="#DejaVuSans-67" x="806.445312"/>
      <use xlink:href="#DejaVuSans-65" x="869.921875"/>
      <use xlink:href="#DejaVuSans-6e" x="931.445312"/>
      <use xlink:href="#DejaVuSans-65" x="994.824219"/>
      <use xlink:href="#DejaVuSans-72" x="1056.347656"/>
      <use xlink:href="#DejaVuSans-61" x="1097.460938"/>
      <use xlink:href="#DejaVuSans-74" x="1158.740234"/>
      <use xlink:href="#DejaVuSans-65" x="1197.949219"/>
      <use xlink:href="#DejaVuSans-73" x="1259.472656"/>
      <use xlink:href="#DejaVuSans-20" x="1311.572266"/>
      <use xlink:href="#DejaVuSans-65" x="1343.359375"/>
      <use xlink:href="#DejaVuSans-6d" x="1404.882812"/>
      <use xlink:href="#DejaVuSans-62" x="1502.294922"/>
      <use xlink:href="#DejaVuSans-65" x="1565.771484"/>
      <use xlink:href="#DejaVuSans-64" x="1627.294922"/>
      <use xlink:href="#DejaVuSans-64" x="1690.771484"/>
      <use xlink:href="#DejaVuSans-69" x="1754.248047"/>
      <use xlink:href="#DejaVuSans-6e" x="1782.03125"/>
      <use xlink:href="#DejaVuSans-67" x="1845.410156"/>
      <use xlink:href="#DejaVuSans-73" x="1908.886719"/>
      <use xlink:href="#DejaVuSans-20" x="1960.986328"/>
      <use xlink:href="#DejaVuSans-66" x="1992.773438"/>
      <use xlink:href="#DejaVuSans-6f" x="2027.978516"/>
      <use xlink:href="#DejaVuSans-72" x="2089.160156"/>
      <use xlink:href="#DejaVuSans-20" x="2130.273438"/>
      <use xlink:href="#DejaVuSans-65" x="2162.060547"/>
      <use xlink:href="#DejaVuSans-61" x="2223.583984"/>
      <use xlink:href="#DejaVuSans-63" x="2284.863281"/>
      <use xlink:href="#DejaVuSans-68" x="2339.84375"/>
      <use xlink:href="#DejaVuSans-20" x="2403.222656"/>
      <use xlink:href="#DejaVuSans-69" x="2435.009766"/>
      <use xlink:href="#DejaVuSans-6e" x="2462.792969"/>
      <use xlink:href="#DejaVuSans-70" x="2526.171875"/>
      <use xlink:href="#DejaVuSans-75" x="2589.648438"/>
      <use xlink:href="#DejaVuSans-74" x="2653.027344"/>
      <use xlink:href="#DejaVuSans-20" x="2692.236328"/>
      <use xlink:href="#DejaVuSans-73" x="2724.023438"/>
      <use xlink:href="#DejaVuSans-65" x="2776.123047"/>
      <use xlink:href="#DejaVuSans-6e" x="2837.646484"/>
      <use xlink:href="#DejaVuSans-74" x="2901.025391"/>
      <use xlink:href="#DejaVuSans-65" x="2940.234375"/>
      <use xlink:href="#DejaVuSans-6e" x="3001.757812"/>
      <use xlink:href="#DejaVuSans-63" x="3065.136719"/>
      <use xlink:href="#DejaVuSans-65" x="3120.117188"/>
     </g>
    </g>
    <g id="line2d_5">
     <path d="M 42.1623 38.490162 
L 52.1623 38.490162 
L 62.1623 38.490162 
" style="fill: none; stroke: #57db5f; stroke-width: 1.5; stroke-linecap: round"/>
    </g>
    <g id="text_2">
     <!-- Sentences are passed as a list of string. -->
     <g style="fill: #262626" transform="translate(70.1623 41.990162) scale(0.1 -0.1)">
      <defs>
       <path id="DejaVuSans-53" d="M 3425 4513 
L 3425 3897 
Q 3066 4069 2747 4153 
Q 2428 4238 2131 4238 
Q 1616 4238 1336 4038 
Q 1056 3838 1056 3469 
Q 1056 3159 1242 3001 
Q 1428 2844 1947 2747 
L 2328 2669 
Q 3034 2534 3370 2195 
Q 3706 1856 3706 1288 
Q 3706 609 3251 259 
Q 2797 -91 1919 -91 
Q 1588 -91 1214 -16 
Q 841 59 441 206 
L 441 856 
Q 825 641 1194 531 
Q 1563 422 1919 422 
Q 2459 422 2753 634 
Q 3047 847 3047 1241 
Q 3047 1584 2836 1778 
Q 2625 1972 2144 2069 
L 1759 2144 
Q 1053 2284 737 2584 
Q 422 2884 422 3419 
Q 422 4038 858 4394 
Q 1294 4750 2059 4750 
Q 2388 4750 2728 4690 
Q 3069 4631 3425 4513 
z
" transform="scale(0.015625)"/>
       <path id="DejaVuSans-6c" d="M 603 4863 
L 1178 4863 
L 1178 0 
L 603 0 
L 603 4863 
z
" transform="scale(0.015625)"/>
       <path id="DejaVuSans-2e" d="M 684 794 
L 1344 794 
L 1344 0 
L 684 0 
L 684 794 
z
" transform="scale(0.015625)"/>
      </defs>
      <use xlink:href="#DejaVuSans-53"/>
      <use xlink:href="#DejaVuSans-65" x="63.476562"/>
      <use xlink:href="#DejaVuSans-6e" x="125"/>
      <use xlink:href="#DejaVuSans-74" x="188.378906"/>
      <use xlink:href="#DejaVuSans-65" x="227.587891"/>
      <use xlink:href="#DejaVuSans-6e" x="289.111328"/>
      <use xlink:href="#DejaVuSans-63" x="352.490234"/>
      <use xlink:href="#DejaVuSans-65" x="407.470703"/>
      <use xlink:href="#DejaVuSans-73" x="468.994141"/>
      <use xlink:href="#DejaVuSans-20" x="521.09375"/>
      <use xlink:href="#DejaVuSans-61" x="552.880859"/>
      <use xlink:href="#DejaVuSans-72" x="614.160156"/>
      <use xlink:href="#DejaVuSans-65" x="653.023438"/>
      <use xlink:href="#DejaVuSans-20" x="714.546875"/>
      <use xlink:href="#DejaVuSans-70" x="746.333984"/>
      <use xlink:href="#DejaVuSans-61" x="809.810547"/>
      <use xlink:href="#DejaVuSans-73" x="871.089844"/>
      <use xlink:href="#DejaVuSans-73" x="923.189453"/>
      <use xlink:href="#DejaVuSans-65" x="975.289062"/>
      <use xlink:href="#DejaVuSans-64" x="1036.8125"/>
      <use xlink:href="#DejaVuSans-20" x="1100.289062"/>
      <use xlink:href="#DejaVuSans-61" x="1132.076172"/>
      <use xlink:href="#DejaVuSans-73" x="1193.355469"/>
      <use xlink:href="#DejaVuSans-20" x="1245.455078"/>
      <use xlink:href="#DejaVuSans-61" x="1277.242188"/>
      <use xlink:href="#DejaVuSans-20" x="1338.521484"/>
      <use xlink:href="#DejaVuSans-6c" x="1370.308594"/>
      <use xlink:href="#DejaVuSans-69" x="1398.091797"/>
      <use xlink:href="#DejaVuSans-73" x="1425.875"/>
      <use xlink:href="#DejaVuSans-74" x="1477.974609"/>
      <use xlink:href="#DejaVuSans-20" x="1517.183594"/>
      <use xlink:href="#DejaVuSans-6f" x="1548.970703"/>
      <use xlink:href="#DejaVuSans-66" x="1610.152344"/>
      <use xlink:href="#DejaVuSans-20" x="1645.357422"/>
      <use xlink:href="#DejaVuSans-73" x="1677.144531"/>
      <use xlink:href="#DejaVuSans-74" x="1729.244141"/>
      <use xlink:href="#DejaVuSans-72" x="1768.453125"/>
      <use xlink:href="#DejaVuSans-69" x="1809.566406"/>
      <use xlink:href="#DejaVuSans-6e" x="1837.349609"/>
      <use xlink:href="#DejaVuSans-67" x="1900.728516"/>
      <use xlink:href="#DejaVuSans-2e" x="1964.205078"/>
     </g>
    </g>
    <g id="line2d_6">
     <path d="M 42.1623 53.168287 
L 52.1623 53.168287 
L 62.1623 53.168287 
" style="fill: none; stroke: #5f57db; stroke-width: 1.5; stroke-linecap: round"/>
    </g>
    <g id="text_3">
     <!-- The quick brown fox jumps over the lazy dog. -->
     <g style="fill: #262626" transform="translate(70.1623 56.668287) scale(0.1 -0.1)">
      <defs>
       <path id="DejaVuSans-71" d="M 947 1747 
Q 947 1113 1208 752 
Q 1469 391 1925 391 
Q 2381 391 2643 752 
Q 2906 1113 2906 1747 
Q 2906 2381 2643 2742 
Q 2381 3103 1925 3103 
Q 1469 3103 1208 2742 
Q 947 2381 947 1747 
z
M 2906 525 
Q 2725 213 2448 61 
Q 2172 -91 1784 -91 
Q 1150 -91 751 415 
Q 353 922 353 1747 
Q 353 2572 751 3078 
Q 1150 3584 1784 3584 
Q 2172 3584 2448 3432 
Q 2725 3281 2906 2969 
L 2906 3500 
L 3481 3500 
L 3481 -1331 
L 2906 -1331 
L 2906 525 
z
" transform="scale(0.015625)"/>
       <path id="DejaVuSans-78" d="M 3513 3500 
L 2247 1797 
L 3578 0 
L 2900 0 
L 1881 1375 
L 863 0 
L 184 0 
L 1544 1831 
L 300 3500 
L 978 3500 
L 1906 2253 
L 2834 3500 
L 3513 3500 
z
" transform="scale(0.015625)"/>
       <path id="DejaVuSans-6a" d="M 603 3500 
L 1178 3500 
L 1178 -63 
Q 1178 -731 923 -1031 
Q 669 -1331 103 -1331 
L -116 -1331 
L -116 -844 
L 38 -844 
Q 366 -844 484 -692 
Q 603 -541 603 -63 
L 603 3500 
z
M 603 4863 
L 1178 4863 
L 1178 4134 
L 603 4134 
L 603 4863 
z
" transform="scale(0.015625)"/>
       <path id="DejaVuSans-76" d="M 191 3500 
L 800 3500 
L 1894 563 
L 2988 3500 
L 3597 3500 
L 2284 0 
L 1503 0 
L 191 3500 
z
" transform="scale(0.015625)"/>
       <path id="DejaVuSans-7a" d="M 353 3500 
L 3084 3500 
L 3084 2975 
L 922 459 
L 3084 459 
L 3084 0 
L 275 0 
L 275 525 
L 2438 3041 
L 353 3041 
L 353 3500 
z
" transform="scale(0.015625)"/>
       <path id="DejaVuSans-79" d="M 2059 -325 
Q 1816 -950 1584 -1140 
Q 1353 -1331 966 -1331 
L 506 -1331 
L 506 -850 
L 844 -850 
Q 1081 -850 1212 -737 
Q 1344 -625 1503 -206 
L 1606 56 
L 191 3500 
L 800 3500 
L 1894 763 
L 2988 3500 
L 3597 3500 
L 2059 -325 
z
" transform="scale(0.015625)"/>
      </defs>
      <use xlink:href="#DejaVuSans-54"/>
      <use xlink:href="#DejaVuSans-68" x="61.083984"/>
      <use xlink:href="#DejaVuSans-65" x="124.462891"/>
      <use xlink:href="#DejaVuSans-20" x="185.986328"/>
      <use xlink:href="#DejaVuSans-71" x="217.773438"/>
      <use xlink:href="#DejaVuSans-75" x="281.25"/>
      <use xlink:href="#DejaVuSans-69" x="344.628906"/>
      <use xlink:href="#DejaVuSans-63" x="372.412109"/>
      <use xlink:href="#DejaVuSans-6b" x="427.392578"/>
      <use xlink:href="#DejaVuSans-20" x="485.302734"/>
      <use xlink:href="#DejaVuSans-62" x="517.089844"/>
      <use xlink:href="#DejaVuSans-72" x="580.566406"/>
      <use xlink:href="#DejaVuSans-6f" x="619.429688"/>
      <use xlink:href="#DejaVuSans-77" x="680.611328"/>
      <use xlink:href="#DejaVuSans-6e" x="762.398438"/>
      <use xlink:href="#DejaVuSans-20" x="825.777344"/>
      <use xlink:href="#DejaVuSans-66" x="857.564453"/>
      <use xlink:href="#DejaVuSans-6f" x="892.769531"/>
      <use xlink:href="#DejaVuSans-78" x="950.826172"/>
      <use xlink:href="#DejaVuSans-20" x="1010.005859"/>
      <use xlink:href="#DejaVuSans-6a" x="1041.792969"/>
      <use xlink:href="#DejaVuSans-75" x="1069.576172"/>
      <use xlink:href="#DejaVuSans-6d" x="1132.955078"/>
      <use xlink:href="#DejaVuSans-70" x="1230.367188"/>
      <use xlink:href="#DejaVuSans-73" x="1293.84375"/>
      <use xlink:href="#DejaVuSans-20" x="1345.943359"/>
      <use xlink:href="#DejaVuSans-6f" x="1377.730469"/>
      <use xlink:href="#DejaVuSans-76" x="1438.912109"/>
      <use xlink:href="#DejaVuSans-65" x="1498.091797"/>
      <use xlink:href="#DejaVuSans-72" x="1559.615234"/>
      <use xlink:href="#DejaVuSans-20" x="1600.728516"/>
      <use xlink:href="#DejaVuSans-74" x="1632.515625"/>
      <use xlink:href="#DejaVuSans-68" x="1671.724609"/>
      <use xlink:href="#DejaVuSans-65" x="1735.103516"/>
      <use xlink:href="#DejaVuSans-20" x="1796.626953"/>
      <use xlink:href="#DejaVuSans-6c" x="1828.414062"/>
      <use xlink:href="#DejaVuSans-61" x="1856.197266"/>
      <use xlink:href="#DejaVuSans-7a" x="1917.476562"/>
      <use xlink:href="#DejaVuSans-79" x="1969.966797"/>
      <use xlink:href="#DejaVuSans-20" x="2029.146484"/>
      <use xlink:href="#DejaVuSans-64" x="2060.933594"/>
      <use xlink:href="#DejaVuSans-6f" x="2124.410156"/>
      <use xlink:href="#DejaVuSans-67" x="2185.591797"/>
      <use xlink:href="#DejaVuSans-2e" x="2249.068359"/>
     </g>
    </g>
   </g>
   <g id="Line3DCollection_5">
    <path d="M 279.003971 273.418231 
L 372.669316 234.168452 
" clip-path="url(#p74ba4c52b0)" style="fill: none; stroke: #000000"/>
    <path d="M 279.644157 113.591189 
L 374.623938 89.140961 
" clip-path="url(#p74ba4c52b0)" style="fill: none; stroke: #000000"/>
    <path d="M 279.003971 273.418231 
L 279.644157 113.591189 
" clip-path="url(#p74ba4c52b0)" style="fill: none; stroke: #000000"/>
    <path d="M 372.669316 234.168452 
L 374.623938 89.140961 
" clip-path="url(#p74ba4c52b0)" style="fill: none; stroke: #000000"/>
   </g>
   <g id="Line3DCollection_6">
    <path d="M 101.014709 249.811379 
L 279.003971 273.418231 
" clip-path="url(#p74ba4c52b0)" style="fill: none; stroke: #000000"/>
    <path d="M 98.892188 98.87653 
L 279.644157 113.591189 
" clip-path="url(#p74ba4c52b0)" style="fill: none; stroke: #000000"/>
    <path d="M 101.014709 249.811379 
L 98.892188 98.87653 
" clip-path="url(#p74ba4c52b0)" style="fill: none; stroke: #000000"/>
    <path d="M 279.003971 273.418231 
L 279.644157 113.591189 
" clip-path="url(#p74ba4c52b0)" style="fill: none; stroke: #000000"/>
   </g>
  </g>
 </g>
 <defs>
  <clipPath id="p74ba4c52b0">
   <rect x="73.152" y="10.7136" width="324.1728" height="324.1728"/>
  </clipPath>
 </defs>
</svg>
